# Blender v3.4.0 OBJ File: 'cow.blend'
# www.blender.org
o cow
v 0.609572 0.790962 0.105476
v 0.518662 0.745035 0.007244
v 0.756270 0.791521 0.127540
v 0.612857 1.230162 0.395611
v 0.487327 1.422579 0.345229
v 0.493912 1.089084 0.376518
v -0.753452 0.967893 -0.198197
v -0.706618 1.088641 -0.336128
v -0.733553 0.789230 -0.172837
v -0.708607 0.815202 -0.282266
v -0.827167 0.660061 -0.152272
v -0.833789 0.644934 -0.226128
v -0.294226 0.835039 0.108368
v -0.341775 0.677376 0.010965
v -0.264327 0.817023 -0.003691
v 0.843742 0.805665 0.150174
v 0.855125 0.720491 0.187367
v 0.818883 0.448876 0.157109
v 1.147789 1.519103 -0.156089
v 0.963193 1.561140 -0.183858
v 1.127093 1.624670 -0.096832
v -0.240810 0.863080 0.242058
v -0.273017 0.991570 0.357448
v -0.350556 0.819600 0.192177
v 0.612280 0.790962 -0.088400
v 0.759609 0.791527 -0.106371
v 0.452064 1.570226 0.259720
v 0.263117 1.637601 0.236955
v 0.273728 1.441352 0.345537
v -0.195194 0.761970 0.079376
v -0.718953 0.146315 0.143921
v -0.771446 0.080377 0.159409
v -0.726421 0.558116 0.083625
v -0.233966 0.862944 -0.248110
v -0.345053 0.819545 -0.201888
v -0.262998 0.991323 -0.360114
v -0.097766 1.730992 -0.088352
v -0.261334 1.719906 -0.242190
v -0.411319 1.703869 -0.234159
v 1.941306 1.370390 0.093568
v 1.790420 1.533322 0.083081
v 1.734369 1.451458 0.127875
v -0.081688 0.810503 -0.316029
v 1.504634 1.716728 -0.151631
v 1.537244 1.686655 -0.164443
v 1.531760 1.726084 -0.303822
v -0.670064 0.732029 0.124982
v -0.545402 0.787497 0.197997
v -0.705844 0.936628 0.154558
v 0.099631 1.740596 0.001393
v 0.180266 1.705686 0.183115
v 0.471916 1.750197 0.006591
v 1.673804 1.350556 0.155085
v 1.675148 1.284036 0.101783
v 1.877567 1.281771 0.123955
v -0.823183 0.653434 0.113799
v -0.801227 0.199550 0.176635
v -0.839777 0.644931 0.202769
v 1.447733 1.685978 -0.149428
v 0.663750 1.506489 0.306702
v 0.667066 1.619849 0.232418
v 0.833798 0.141235 -0.182313
v 0.788760 0.321322 -0.134365
v 0.804839 0.109454 -0.136680
v 1.244058 1.677381 -0.019590
v 1.129997 1.660728 0.015780
v 1.291882 1.662701 0.123111
v 1.535132 1.609226 -0.344121
v 1.484240 1.646416 -0.321184
v 0.804504 0.012155 -0.120958
v 0.754168 0.078934 -0.171512
v 1.789092 1.255500 -0.022610
v 1.571788 1.264839 -0.020761
v 1.675385 1.348557 -0.106287
v -0.639943 1.735134 0.104689
v -0.586825 1.725980 0.246297
v -0.417690 1.703867 0.222588
v -0.443415 0.672209 0.108826
v -0.559733 0.654128 0.100602
v -0.488491 0.615234 0.058538
v -0.567619 1.473536 0.373227
v -0.585438 1.269189 0.393620
v -0.378205 1.565179 0.315951
v 1.692964 1.588290 0.174820
v 1.057621 1.005851 0.076926
v 1.077886 1.099832 0.219682
v 0.986344 0.832523 0.118688
v 0.784695 0.321332 0.156341
v 0.793953 0.381172 0.231859
v -0.669115 0.608668 0.228924
v -0.787954 0.622624 0.237528
v -0.773892 0.426361 0.217430
v -0.539910 0.895457 0.202041
v -0.356622 0.878479 0.166123
v 1.480204 1.645910 -0.148492
v 1.341292 1.638964 -0.118421
v 1.418135 1.492202 -0.145366
v 0.800115 0.381162 -0.209581
v 0.812966 0.149377 -0.218160
v 0.710104 0.394611 -0.207349
v -0.564412 1.765958 -0.007871
v 0.926466 1.131546 -0.339014
v 0.806219 1.128662 -0.381839
v 0.906460 1.286724 -0.314393
v 0.900947 0.963482 -0.323152
v 1.442992 1.685980 0.189801
v 1.499820 1.716732 0.193601
v 0.469558 0.928559 0.315602
v 0.615218 0.882526 0.282917
v 1.192367 1.071744 0.011938
v 1.061149 1.158088 0.133447
v 1.002158 1.241704 0.253416
v 0.905285 1.133059 0.370851
v 0.812765 0.119381 0.166293
v 1.594189 1.800595 -0.020438
v 1.687058 1.703539 0.082070
v 1.782995 1.569342 0.024898
v 0.821976 0.022029 0.290579
v 0.956265 0.016842 0.219519
v 0.810155 0.143702 0.240477
v 0.478387 0.928690 -0.302629
v 0.330800 0.720061 -0.133541
v 1.014181 1.256656 -0.219910
v -0.291089 0.835017 -0.116521
v 0.951509 0.017402 -0.183310
v 0.889841 0.020117 -0.258940
v -0.764341 1.726534 -0.010670
v 0.331345 0.939817 0.348508
v 0.324429 0.719901 0.144216
v 0.355780 0.688280 0.004969
v -0.776749 0.849547 -0.068882
v -0.674336 0.764177 -0.158551
v -0.746577 0.762538 -0.002714
v 0.683490 0.802923 0.182185
v 0.668980 0.778941 0.258491
v 1.539399 1.817406 0.048951
v 1.481795 1.784110 0.102526
v -0.422023 0.783499 0.176811
v 0.755681 0.060242 -0.223769
v -0.416882 0.783556 -0.188528
v -0.539652 0.787523 -0.213150
v -0.351853 0.878476 -0.175990
v 0.685636 1.737008 -0.124625
v -0.570841 0.031144 0.187484
v -0.713111 0.011808 0.114777
v 1.846656 1.302900 -0.019765
v 1.882297 1.273084 -0.071673
v -0.090077 0.974393 0.428819
v -0.221149 1.225435 0.387710
v 1.049036 1.061959 -0.181344
v 0.945899 0.849752 -0.172819
v 1.897189 1.269613 0.109620
v 0.807871 0.944611 -0.359236
v 0.757971 0.495391 -0.245764
v 0.719322 0.741232 -0.292849
v 1.475478 1.645911 0.189765
v -0.228916 1.418595 0.380151
v -0.409978 1.245827 0.398519
v 0.753656 1.292332 0.380788
v 0.795243 1.128662 0.404217
v 0.897328 1.286724 0.339583
v 1.424829 1.237908 0.014151
v 1.370624 1.261615 0.071872
v -0.073050 1.197922 0.429993
v 0.151087 1.190612 0.437470
v -0.765118 0.079641 0.217085
v -0.112200 0.729555 -0.109545
v 0.104531 0.689682 -0.130352
v -0.072390 0.697552 0.046894
v 0.335826 1.434358 -0.332156
v 0.107164 1.406914 -0.386116
v 0.269467 1.638026 -0.229118
v -0.267995 1.719906 0.234803
v -0.240819 1.600569 0.322834
v -0.636678 1.735151 -0.122585
v 0.340865 0.939817 -0.333273
v 0.504233 1.089139 -0.362578
v 0.383619 1.211692 -0.377385
v 0.623664 1.230163 -0.378342
v 0.891572 0.963481 0.348198
v 0.786864 0.932596 0.379243
v 0.845926 0.783980 0.309079
v 0.024952 1.578789 -0.297319
v -0.026750 1.676401 -0.202970
v 0.957690 1.561142 0.210694
v 1.053998 1.443730 0.216247
v 1.142966 1.519093 0.188099
v -0.709625 0.011811 -0.134627
v -0.685300 0.020119 -0.283320
v -0.565381 0.031144 -0.203339
v 0.017260 1.578840 0.297756
v -0.032350 1.676398 0.202147
v -0.612745 0.611240 -0.078670
v -0.633256 0.653399 0.014519
v -0.493558 0.904500 0.108428
v 0.622881 0.882454 -0.265601
v -0.100154 1.730994 0.085585
v 0.957794 0.899520 0.216742
v 1.522664 1.726059 0.346471
v 1.532058 1.686650 0.207313
v 0.845778 1.482908 0.276922
v -0.480091 0.638597 -0.101595
v -0.342700 0.703088 -0.077364
v -0.486666 0.615231 -0.072136
v -0.716201 0.815207 0.262389
v 0.682142 1.735850 0.144658
v 1.524923 1.609229 0.386858
v 1.474690 1.646419 0.362497
v 1.875841 1.223967 0.026197
v 1.120117 1.313211 0.177674
v 1.138151 1.311130 -0.141923
v 1.426068 1.378210 -0.112518
v 0.680986 1.058970 0.394781
v -0.644099 0.722598 0.090085
v -0.487738 0.828808 0.120924
v -0.622975 0.652552 0.150466
v 1.484080 1.784110 -0.061095
v 1.065101 0.833236 0.012828
v 0.185369 1.705688 -0.177988
v 0.471622 1.686146 -0.124275
v -0.570476 0.651017 -0.017150
v 0.138362 0.793793 -0.317118
v 1.557377 1.764265 0.134453
v 1.647306 1.647552 0.173532
v 1.554205 1.718482 0.176838
v 0.855948 0.802927 -0.129603
v 0.904802 0.761393 0.025904
v 0.264846 0.795690 -0.274121
v 0.822950 0.448933 -0.134168
v 0.719598 0.412295 -0.112541
v 0.257063 0.795689 0.283231
v 0.129398 0.793793 0.324832
v 1.422448 1.378370 0.152358
v 1.506373 1.519459 0.188427
v 0.675936 0.778953 -0.239706
v 0.691280 1.052858 -0.374193
v 0.682486 0.412536 0.168822
v 1.123951 1.624669 0.128267
v 1.043530 1.116663 -0.090134
v 1.046362 0.986058 -0.050690
v -0.782675 0.943128 0.072528
v -0.780162 1.021078 0.093744
v -0.759213 1.074600 -0.010600
v -0.714892 0.155758 0.210082
v -0.816127 1.271020 -0.012077
v -0.832289 1.236281 0.094936
v 0.691774 1.773756 0.010738
v -0.758692 0.967894 0.177084
v -0.569020 1.623106 0.326278
v -0.668144 0.870501 0.105120
v -0.814521 1.409608 0.227759
v -0.778191 1.390041 -0.010865
v -0.738093 0.789230 0.152304
v -0.078241 0.974393 -0.418819
v -0.715727 1.088641 0.316270
v 0.613068 0.975909 -0.341137
v -0.820798 1.254321 0.238468
v 0.763994 1.292332 -0.359592
v -0.721365 1.418253 0.324857
v -0.645906 0.978928 0.322515
v -0.623515 1.124952 0.384768
v -0.692952 0.020133 0.264084
v 0.672055 1.506489 -0.288033
v 0.673283 1.619861 -0.213688
v 0.853180 1.482908 -0.253196
v -0.715323 1.596143 0.315526
v -0.435948 1.078119 0.406732
v -0.810687 1.523174 0.212709
v 0.859814 0.767868 -0.282048
v -0.889887 1.443328 0.080747
v -0.850680 1.392075 -0.011877
v -0.718485 1.699155 0.240886
v -0.805669 1.628296 0.167123
v -0.535592 0.876535 0.343523
v 0.736338 0.090757 0.216035
v 0.716263 0.411964 0.132649
v -0.914865 1.543368 -0.013323
v -0.892950 1.173241 0.034694
v -0.842875 0.981199 -0.011768
v 0.800759 0.012281 0.143401
v -0.827620 1.220845 -0.125040
v -0.777241 1.021075 -0.115475
v -0.940572 1.320945 -0.013051
v -0.877308 0.592913 0.006773
v -0.712322 0.411179 0.173712
v 1.560531 1.764265 -0.090913
v 1.558541 1.718485 -0.133363
v 1.579718 1.807421 -0.238062
v -0.891620 1.173058 -0.059590
v -0.880747 0.638240 -0.044074
v 0.688367 0.802905 -0.163015
v -0.813820 1.254321 -0.261276
v -0.807844 1.409608 -0.250396
v 0.459139 1.570226 -0.246979
v 1.939496 1.274792 -0.022464
v 1.971511 1.366608 -0.017282
v 1.645583 1.404732 -0.123361
v -0.887285 1.443330 -0.105547
v -0.459712 0.787632 0.277594
v 0.100851 0.689682 0.133222
v -0.804432 1.523174 -0.235259
v 0.173988 0.960732 0.431141
v 0.372946 1.211610 0.386910
v -0.061469 1.404083 0.379052
v 0.096358 1.406914 0.387784
v 0.467989 1.686150 0.137397
v -0.802600 1.627376 -0.179527
v -0.711479 1.699155 -0.260850
v -0.706234 1.596143 -0.335373
v -0.559688 1.623106 -0.342022
v -0.579720 1.725980 -0.262569
v -0.712019 1.418241 -0.344857
v -0.369061 1.565162 -0.326357
v -0.556976 1.473536 -0.388927
v 0.860023 0.720491 -0.163401
v -0.060932 1.198006 -0.437854
v 0.163326 1.190723 -0.439083
v -0.231712 1.600569 -0.329415
v -0.574220 1.269190 -0.409797
v -0.218208 1.418595 -0.386699
v -0.090539 0.810503 0.317802
v -0.398691 1.245828 -0.409808
v -0.612529 1.124951 -0.402025
v 0.601616 0.972330 0.354968
v -0.636651 0.978927 -0.340421
v -0.490338 0.904500 -0.122164
v -0.484171 0.828808 -0.134493
v -0.664949 0.870501 -0.123732
v -0.641336 0.722591 -0.108017
v -0.780774 0.616241 -0.114825
v -0.723802 0.558113 -0.103866
v -0.050840 1.404083 -0.382182
v 1.059625 1.443734 -0.186730
v -0.701251 0.936618 -0.174205
v 0.710044 0.740061 0.311477
v 0.704036 0.394616 0.227112
v -0.795981 0.199526 -0.198923
v -0.766691 0.080372 -0.180868
v -0.714651 0.146314 -0.163928
v 0.104615 0.665606 0.001462
v -0.534058 0.895457 -0.217021
v 0.750816 0.495395 0.266838
v -0.210195 1.225325 -0.396727
v -0.767522 0.426360 -0.238937
v -0.758761 0.079653 -0.238348
v -0.781018 0.622607 -0.259419
v -0.708741 0.155748 -0.229947
v -0.662474 0.608659 -0.247509
v -0.523596 0.878181 -0.359129
v -0.443542 0.794504 -0.293138
v -0.424421 1.078119 -0.418743
v -0.618488 0.652602 -0.167797
v -0.622361 0.573279 0.050480
v -0.707194 0.411180 -0.193516
v 0.686935 0.412589 -0.149258
v 1.572454 1.807425 0.282103
v 0.185776 0.960732 -0.413111
v -0.912085 0.616977 -0.012747
v 1.792064 1.533290 -0.033042
v 1.682239 1.571313 -0.130772
v 1.710371 1.617049 -0.111534
v 1.556968 1.576932 -0.155009
s off
f 1 2 3
f 4 5 6
f 7 8 9
f 10 9 8
f 9 10 11
f 12 11 10
f 13 14 15
f 16 17 18
f 19 20 21
f 22 23 24
f 25 26 2
f 27 28 29
f 15 30 13
f 31 32 33
f 34 35 36
f 37 38 39
f 40 41 42
f 34 36 43
f 44 45 46
f 47 48 49
f 50 51 52
f 53 54 55
f 56 57 58
f 44 46 59
f 60 61 5
f 62 63 64
f 65 66 67
f 68 69 46
f 69 59 46
f 70 64 71
f 72 73 74
f 75 76 77
f 78 79 80
f 81 82 83
f 42 84 53
f 85 86 87
f 88 18 89
f 90 91 92
f 93 48 94
f 59 69 95
f 59 95 96
f 95 97 19
f 98 99 100
f 101 50 37
f 68 95 69
f 102 103 104
f 102 105 103
f 106 107 67
f 108 1 109
f 110 111 85
f 112 113 86
f 88 89 114
f 115 116 117
f 118 119 120
f 121 25 122
f 123 102 104
f 15 124 30
f 125 126 62
f 101 127 75
f 108 6 128
f 68 46 95
f 45 95 46
f 2 129 130
f 131 132 133
f 134 135 109
f 136 65 137
f 79 138 48
f 2 122 25
f 139 126 70
f 140 141 142
f 21 143 66
f 144 145 31
f 146 55 147
f 23 148 149
f 150 151 105
f 147 152 146
f 153 154 155
f 106 67 156
f 70 126 125
f 149 157 158
f 159 160 161
f 110 162 163
f 164 148 165
f 57 32 166
f 21 65 96
f 167 168 169
f 170 171 172
f 173 77 174
f 39 175 101
f 176 121 122
f 177 178 179
f 159 4 160
f 180 181 182
f 183 184 172
f 146 152 55
f 185 186 187
f 188 189 190
f 191 28 192
f 164 149 148
f 193 141 140
f 157 174 83
f 100 99 139
f 194 133 193
f 93 94 195
f 121 196 25
f 197 192 51
f 187 156 67
f 57 92 58
f 43 167 34
f 198 182 17
f 17 16 198
f 35 34 142
f 107 199 200
f 4 159 5
f 19 96 95
f 186 185 201
f 60 201 61
f 107 106 199
f 202 203 204
f 58 205 56
f 61 185 206
f 207 199 208
f 208 199 106
f 209 72 147
f 101 197 50
f 112 210 186
f 211 212 110
f 213 160 4
f 41 84 42
f 86 111 112
f 214 215 216
f 72 74 147
f 65 59 96
f 106 156 208
f 136 217 65
f 85 87 218
f 77 101 75
f 207 208 156
f 172 219 220
f 79 194 221
f 105 102 150
f 13 78 14
f 72 209 54
f 168 222 122
f 86 85 111
f 116 223 224
f 225 224 223
f 226 151 227
f 228 122 222
f 229 230 63
f 231 232 129
f 210 233 234
f 132 141 193
f 155 235 236
f 218 87 227
f 207 156 199
f 134 3 237
f 67 137 65
f 238 67 66
f 239 110 240
f 200 199 156
f 116 224 84
f 241 242 243
f 31 244 144
f 243 242 245
f 70 71 139
f 246 245 242
f 247 206 66
f 195 215 248
f 249 83 76
f 250 248 215
f 215 214 250
f 246 251 245
f 113 161 160
f 252 245 251
f 37 39 101
f 99 98 62
f 214 253 250
f 248 250 253
f 56 214 33
f 214 56 253
f 43 254 222
f 248 253 255
f 14 78 80
f 178 177 176
f 150 239 240
f 177 256 121
f 221 14 80
f 248 257 242
f 246 242 257
f 257 251 246
f 248 255 257
f 258 104 103
f 259 257 255
f 205 255 253
f 253 56 205
f 55 209 147
f 255 205 260
f 260 261 255
f 259 255 82
f 261 82 255
f 145 144 262
f 263 264 265
f 251 257 259
f 82 261 158
f 259 266 251
f 267 158 261
f 261 260 267
f 268 251 266
f 251 268 252
f 269 98 153
f 266 259 249
f 268 270 252
f 271 252 270
f 266 272 268
f 266 249 272
f 268 273 270
f 273 268 272
f 90 274 91
f 275 276 114
f 277 270 273
f 270 278 271
f 279 271 278
f 280 275 114
f 14 203 15
f 247 66 143
f 281 282 245
f 270 283 278
f 283 270 277
f 98 269 229
f 26 230 226
f 201 112 186
f 107 200 225
f 132 193 133
f 101 175 127
f 284 279 278
f 236 153 155
f 196 236 235
f 278 283 284
f 285 33 216
f 280 118 275
f 99 62 126
f 196 121 256
f 286 287 288
f 137 223 136
f 289 290 283
f 216 90 285
f 290 289 279
f 25 291 26
f 209 55 54
f 279 284 290
f 292 281 293
f 294 170 172
f 295 296 152
f 197 51 50
f 87 198 16
f 74 297 147
f 279 289 271
f 229 226 230
f 298 271 289
f 298 289 283
f 133 47 241
f 283 277 298
f 98 100 154
f 274 90 299
f 271 298 252
f 300 129 232
f 241 49 242
f 183 172 171
f 301 252 298
f 83 174 77
f 17 182 18
f 293 252 301
f 252 293 245
f 165 302 303
f 40 42 55
f 304 164 305
f 198 86 113
f 27 306 28
f 272 75 273
f 127 277 273
f 124 34 167
f 75 127 273
f 305 165 29
f 71 64 230
f 127 307 277
f 186 234 187
f 18 276 16
f 212 74 162
f 138 94 48
f 89 18 182
f 307 298 277
f 193 140 202
f 37 219 184
f 301 298 307
f 239 123 211
f 175 307 127
f 307 308 301
f 308 307 175
f 309 301 308
f 301 309 293
f 64 63 230
f 299 90 216
f 309 308 310
f 311 308 175
f 311 310 308
f 309 310 312
f 312 293 309
f 310 311 313
f 314 312 310
f 310 313 314
f 39 313 311
f 315 151 226
f 316 317 254
f 175 39 311
f 313 39 318
f 151 240 218
f 170 179 178
f 38 318 39
f 314 313 319
f 314 319 312
f 320 313 318
f 321 232 148
f 313 320 322
f 322 319 313
f 220 52 143
f 293 312 292
f 312 319 8
f 312 8 292
f 323 8 319
f 319 322 323
f 7 292 8
f 324 109 213
f 7 282 292
f 325 8 323
f 151 315 269
f 8 325 10
f 326 7 327
f 161 112 201
f 6 108 324
f 328 327 7
f 327 328 329
f 7 9 328
f 166 32 262
f 329 328 9
f 220 219 52
f 91 205 58
f 330 331 329
f 329 9 330
f 332 171 316
f 11 330 9
f 241 243 282
f 20 19 333
f 243 245 282
f 13 138 78
f 138 13 94
f 131 282 334
f 233 53 234
f 335 135 336
f 41 40 117
f 105 269 153
f 228 176 122
f 291 196 235
f 37 50 219
f 337 330 11
f 11 12 337
f 330 338 331
f 339 331 338
f 267 274 23
f 338 330 337
f 94 24 195
f 340 300 169
f 341 326 142
f 211 97 212
f 264 143 20
f 181 335 342
f 303 128 6
f 236 179 103
f 206 306 61
f 104 265 123
f 316 254 343
f 76 272 249
f 128 303 302
f 342 89 181
f 226 229 315
f 49 241 47
f 22 321 23
f 194 47 133
f 336 275 120
f 303 29 165
f 161 201 159
f 100 139 230
f 112 161 113
f 337 12 344
f 344 345 337
f 346 344 12
f 73 163 162
f 345 344 347
f 76 75 272
f 27 61 306
f 49 93 248
f 248 242 49
f 27 5 61
f 335 213 135
f 167 30 124
f 198 87 86
f 346 12 10
f 348 344 346
f 163 111 110
f 315 229 269
f 10 349 346
f 348 346 349
f 33 214 216
f 325 349 10
f 349 350 348
f 349 325 351
f 323 351 325
f 351 323 322
f 89 342 336
f 169 321 30
f 351 36 349
f 350 349 36
f 322 343 351
f 36 351 343
f 343 322 320
f 350 36 35
f 263 265 258
f 320 332 343
f 320 318 332
f 234 200 156
f 21 66 65
f 183 332 318
f 318 38 183
f 350 352 348
f 352 350 35
f 79 47 353
f 35 327 352
f 327 35 326
f 329 352 327
f 142 326 35
f 212 297 74
f 238 66 206
f 40 152 296
f 331 352 329
f 224 225 200
f 143 21 20
f 181 180 160
f 147 295 152
f 352 354 348
f 354 352 331
f 244 262 144
f 302 148 232
f 344 348 354
f 104 258 265
f 122 130 168
f 150 123 239
f 91 58 92
f 244 31 285
f 73 54 163
f 331 339 354
f 354 347 344
f 64 70 125
f 247 143 52
f 347 354 339
f 7 334 282
f 92 285 90
f 285 92 244
f 274 267 260
f 174 191 173
f 128 302 231
f 211 110 239
f 135 134 237
f 306 52 51
f 269 105 151
f 63 62 98
f 205 91 274
f 79 78 138
f 218 227 151
f 227 16 3
f 237 336 135
f 116 84 41
f 291 355 26
f 123 150 102
f 67 238 187
f 231 129 128
f 249 81 83
f 317 316 171
f 171 332 183
f 107 225 137
f 114 276 88
f 206 185 238
f 96 19 21
f 321 169 232
f 262 244 166
f 184 38 37
f 337 345 338
f 47 79 48
f 303 6 5
f 154 153 98
f 339 190 347
f 265 333 123
f 300 232 169
f 340 130 300
f 190 339 188
f 118 120 275
f 317 178 357
f 53 55 42
f 324 213 6
f 129 300 130
f 162 110 212
f 334 7 341
f 97 211 333
f 357 254 317
f 2 1 129
f 326 341 7
f 32 57 56
f 72 54 73
f 294 264 170
f 336 276 275
f 347 190 189
f 145 262 32
f 294 220 264
f 306 206 52
f 178 317 170
f 215 195 24
f 81 249 259
f 216 24 299
f 110 218 240
f 41 117 116
f 241 131 133
f 264 20 265
f 188 338 189
f 23 149 267
f 61 201 185
f 189 345 347
f 181 160 213
f 355 235 100
f 345 189 338
f 24 216 215
f 60 159 201
f 247 52 206
f 219 172 184
f 4 6 213
f 114 119 280
f 18 88 276
f 236 256 179
f 221 204 14
f 305 191 304
f 299 24 23
f 124 203 140
f 100 230 355
f 165 305 164
f 223 356 225
f 148 23 321
f 13 22 94
f 316 343 332
f 230 26 355
f 188 339 338
f 79 221 80
f 109 324 108
f 192 173 191
f 197 101 77
f 197 77 173
f 227 3 2
f 28 306 51
f 282 131 241
f 334 132 131
f 284 358 290
f 27 29 5
f 143 264 220
f 33 285 31
f 54 53 163
f 192 197 173
f 245 293 281
f 184 183 38
f 111 163 210
f 235 355 291
f 51 192 28
f 222 357 228
f 77 76 83
f 336 342 335
f 30 167 169
f 119 118 280
f 141 334 341
f 124 142 34
f 124 15 203
f 132 334 141
f 24 94 22
f 296 117 40
f 140 142 124
f 203 14 204
f 110 85 218
f 43 222 167
f 195 248 93
f 213 335 181
f 358 284 283
f 89 336 120
f 182 181 89
f 203 202 140
f 16 227 87
f 333 19 97
f 234 224 200
f 260 205 274
f 256 236 196
f 191 305 28
f 29 28 305
f 294 172 220
f 223 137 225
f 221 194 193
f 113 160 180
f 2 130 122
f 291 25 196
f 108 129 1
f 47 194 353
f 303 5 29
f 276 237 3
f 232 231 302
f 254 43 36
f 263 258 170
f 26 226 227
f 62 64 125
f 121 176 177
f 128 129 108
f 233 163 53
f 166 244 92
f 357 222 254
f 176 228 357
f 36 343 254
f 109 135 213
f 234 53 84
f 63 98 229
f 153 236 103
f 263 170 264
f 158 267 149
f 92 57 166
f 48 93 49
f 158 83 82
f 147 296 295
f 100 155 154
f 153 103 105
f 340 169 168
f 302 165 148
f 73 162 74
f 359 117 296
f 296 147 297
f 296 297 359
f 139 71 230
f 50 52 219
f 137 67 107
f 176 357 178
f 157 304 174
f 120 114 89
f 340 168 130
f 56 33 32
f 55 152 40
f 136 223 116
f 168 167 222
f 156 187 234
f 359 297 360
f 281 292 282
f 177 179 256
f 240 151 150
f 193 202 221
f 359 361 117
f 81 259 82
f 1 3 134
f 361 115 117
f 60 5 159
f 336 237 276
f 258 103 179
f 361 359 360
f 171 170 317
f 321 22 30
f 299 23 274
f 163 233 210
f 13 30 22
f 157 149 304
f 341 142 141
f 145 32 31
f 358 283 290
f 164 304 149
f 361 360 362
f 155 100 235
f 83 158 157
f 210 112 111
f 362 45 361
f 134 109 1
f 115 361 286
f 287 286 361
f 361 45 287
f 123 333 211
f 227 2 26
f 116 115 136
f 194 79 353
f 180 198 113
f 333 265 20
f 182 198 180
f 217 115 286
f 217 136 115
f 286 287 217
f 224 234 84
f 234 186 210
f 44 217 287
f 44 287 45
f 126 139 99
f 202 204 221
f 217 44 65
f 59 65 44
f 119 114 120
f 191 174 304
f 179 170 258
f 362 95 45
f 362 97 95
f 3 16 276
f 297 362 360
f 97 362 212
f 297 212 362
f 187 238 185
